<?xml version="1.0" encoding="UTF-8" standalone="no"?>
<!-- Created with Inkscape (http://www.inkscape.org/) -->

<svg
   width="485.12054"
   height="11.524329"
   viewBox="0 0 128.3548 3.0491491"
   version="1.1"
   id="svg8"
   inkscape:version="1.2.1 (9c6d41e410, 2022-07-14)"
   sodipodi:docname="Curly Header.svg"
   xmlns:inkscape="http://www.inkscape.org/namespaces/inkscape"
   xmlns:sodipodi="http://sodipodi.sourceforge.net/DTD/sodipodi-0.dtd"
   xmlns="http://www.w3.org/2000/svg"
   xmlns:svg="http://www.w3.org/2000/svg"
   xmlns:rdf="http://www.w3.org/1999/02/22-rdf-syntax-ns#"
   xmlns:cc="http://creativecommons.org/ns#"
   xmlns:dc="http://purl.org/dc/elements/1.1/">
  <defs
     id="defs2" />
  <sodipodi:namedview
     id="base"
     pagecolor="#ffffff"
     bordercolor="#666666"
     borderopacity="1.0"
     inkscape:pageopacity="0"
     inkscape:pageshadow="2"
     inkscape:zoom="2.8"
     inkscape:cx="181.42857"
     inkscape:cy="47.678571"
     inkscape:document-units="px"
     inkscape:current-layer="layer1"
     showgrid="true"
     units="px"
     inkscape:window-width="2560"
     inkscape:window-height="1377"
     inkscape:window-x="-8"
     inkscape:window-y="-8"
     inkscape:window-maximized="1"
     inkscape:pagecheckerboard="true"
     inkscape:snap-grids="true"
     inkscape:showpageshadow="2"
     inkscape:deskcolor="#d1d1d1">
    <inkscape:grid
       type="xygrid"
       id="grid815"
       spacingx="1.0583333"
       spacingy="1.0583333"
       empspacing="4"
       originx="-3.5619855"
       originy="-2.27435" />
  </sodipodi:namedview>
  <metadata
     id="metadata5">
    <rdf:RDF>
      <cc:Work
         rdf:about="">
        <dc:format>image/svg+xml</dc:format>
        <dc:type
           rdf:resource="http://purl.org/dc/dcmitype/StillImage" />
      </cc:Work>
    </rdf:RDF>
  </metadata>
  <g
     inkscape:label="Layer 1"
     inkscape:groupmode="layer"
     id="layer1"
     transform="translate(-3.5619902,-163.80767)">
    <g
       id="g889">
      <path
         sodipodi:nodetypes="cccc"
         inkscape:connector-curvature="0"
         id="path829"
         d="m 3.5619049,163.83784 2.3092526,0.0118 -0.3744147,0.71837 z"
         style="opacity:1;vector-effect:none;fill:#ffffff;fill-opacity:1;stroke:none;stroke-width:2.1299;stroke-linecap:round;stroke-linejoin:miter;stroke-miterlimit:4;stroke-dasharray:none;stroke-dashoffset:0;stroke-opacity:1;paint-order:markers fill stroke" />
      <path
         inkscape:connector-curvature="0"
         id="path831"
         d="m 28.220703,8.6914062 c -2.821616,0.1111182 -3.560348,2.3437138 -3.535156,3.4726558 0.03118,1.396536 0.457918,3.073295 3.304687,3.119141 1.425399,0.02268 2.347704,-0.186876 2.371094,-1.554687 0.01221,-0.71452 -0.08858,-1.441505 -1.287109,-1.486328 -1.107894,-0.04157 -1.455078,1.009765 -1.455078,1.009765 -0.652499,-0.145512 -0.77607,-0.466747 -0.705079,-1.005859 0.195878,-1.487433 3.076903,-1.405824 4.039063,-1.214844 6.886017,1.366715 11.50805,3.380062 17.791016,5.560547 l 4.021484,-3.417969 13.216797,4.085938 c 4.173033,-2.664719 3.50171,-3.132083 4.980469,-5.53711 -0.661282,1.309229 -1.13989,2.405073 -1.136719,3.976563 0.0064,3.119357 2.420419,4.381559 5.050781,4.419922 3.771984,0.05518 5.004639,-1.848891 4.972656,-3.914063 -0.04426,-2.857209 -1.959507,-3.673434 -3.960937,-3.724609 -1.2973,-0.03402 -2.101888,0.424953 -2.083984,1.578125 0.01739,1.131893 0.871555,1.372026 1.466796,1.373047 0.767052,0.0013 1.184227,-0.514087 1.121094,-1.310547 0.486542,-0.259654 1.43267,0.60727 1.453125,1.404297 0.03364,1.315729 -1.546732,2.677348 -2.904297,2.636718 -1.755428,-0.05254 -3.568991,-1.192734 -3.542968,-3.617187 0.02116,-1.988447 1.583608,-3.753672 4.363281,-3.833984 2.321699,-0.06728 4.732987,0.704804 6.517578,2.191406 1.272385,1.05993 3.667325,4.933236 8.144531,4.90625 4.007955,-0.02268 3.590011,-0.748461 7.34961,-4.207032 2.362282,-2.17315 8.261372,-3.537109 10.529292,-3.537109 h 95.49219 c 1.26463,1.820636 2.63365,3.347024 4.19531,4.335938 1.96532,-1.698709 3.86986,-3.728516 6.74219,-3.728516 5.28207,0 6.63623,6.301905 11.0586,6.779297 0,0 18.2034,-6.998424 23.13671,-7.058594 1.05058,-0.01134 2.25598,0.874353 2.35938,1.919922 0.0778,0.787087 -0.994,1.729144 -1.42188,1.785156 0.0238,-0.713877 -0.10466,-1.414521 -1.10937,-1.443359 -0.70498,-0.0189 -1.49395,0.315487 -1.49805,1.320312 -0.005,1.187528 0.79644,1.837658 2.42969,1.869141 2.59966,0.04989 3.28795,-1.814996 3.26367,-3.21875 -0.0302,-1.739792 -0.5084,-3.9277344 -3.53125,-3.9277344 H 69.416016 C 66.978422,12.470414 66.35288,14.408018 63.464844,14.894531 l -8.080078,-2.210937 1.720703,-2.34961 6.455078,-1.6425778 z M 30.691406,9.8125 h 19.398438 c -0.960329,1.994532 -2.43387,3.93421 -4.6875,4.263672 z m 49.107422,0.044922 9.441406,0.066406 c 0,0 -1.522602,1.56786 -1.40625,2.523438 0.09226,0.757719 0.799962,1.639094 1.5625,1.673828 0.55801,0.02646 1.272058,-0.559027 1.25,-1.117188 -0.01852,-0.466923 -1.115234,-0.847656 -1.115234,-0.847656 0,0 -0.27131,-1.439833 1.673828,-1.384766 1.616224,0.04573 1.941051,1.576897 1.941406,2.679688 7.37e-4,2.285442 -1.434899,2.883274 -2.855468,2.923828 -4.292474,0.122457 -6.974597,-5.700293 -10.492188,-6.517578 z m 142.923832,0 h 23.54882 c -6.97383,1.349669 -14.00151,4.796199 -17.23046,4.753906 -3.13206,-0.0412 -5.76591,-3.682448 -6.31836,-4.753906 z"
         style="opacity:1;vector-effect:none;fill:#ffffff;fill-opacity:1;stroke:none;stroke-width:8.05;stroke-linecap:round;stroke-linejoin:miter;stroke-miterlimit:4;stroke-dasharray:none;stroke-dashoffset:0;stroke-opacity:1;paint-order:markers fill stroke"
         transform="matrix(0.26458333,0,0,0.26458333,0,161.53332)" />
      <circle
         r="0.5433408"
         cy="165.62964"
         cx="56.855888"
         id="path842"
         style="opacity:1;vector-effect:none;fill:#ffffff;fill-opacity:1;stroke:none;stroke-width:2.1299;stroke-linecap:round;stroke-linejoin:miter;stroke-miterlimit:4;stroke-dasharray:none;stroke-dashoffset:0;stroke-opacity:1;paint-order:markers fill stroke" />
    </g>
    <g
       id="g894">
      <path
         sodipodi:nodetypes="cccc"
         inkscape:connector-curvature="0"
         id="path829-6"
         d="m 131.91687,163.81259 -2.30925,0.0118 0.37441,0.71837 z"
         style="opacity:1;vector-effect:none;fill:#ffffff;fill-opacity:1;stroke:none;stroke-width:2.1299;stroke-linecap:round;stroke-linejoin:miter;stroke-miterlimit:4;stroke-dasharray:none;stroke-dashoffset:0;stroke-opacity:1;paint-order:markers fill stroke" />
      <path
         inkscape:connector-curvature="0"
         id="path831-5"
         d="m 128.01205,163.80767 c 0.74655,0.0294 0.94201,0.62011 0.93534,0.91881 -0.008,0.3695 -0.12115,0.81314 -0.87436,0.82527 -0.37714,0.006 -0.62117,-0.0494 -0.62735,-0.41134 -0.003,-0.18905 0.0234,-0.3814 0.34054,-0.39326 0.29313,-0.011 0.38499,0.26716 0.38499,0.26716 0.17264,-0.0385 0.20534,-0.12349 0.18655,-0.26613 -0.0518,-0.39355 -0.81409,-0.37196 -1.06866,-0.32143 -1.82193,0.36161 -3.04484,0.89431 -4.70721,1.47123 l -1.06402,-0.90434 -3.49694,1.08108 c -1.10412,-0.70505 -0.9265,-0.8287 -1.31775,-1.46503 0.17496,0.3464 0.3016,0.63634 0.30076,1.05213 -0.002,0.82533 -0.64041,1.15929 -1.33636,1.16944 -0.998,0.0146 -1.32414,-0.48919 -1.31568,-1.0356 0.0117,-0.75597 0.51845,-0.97193 1.048,-0.98547 0.34324,-0.009 0.55612,0.11244 0.55139,0.41755 -0.005,0.29948 -0.2306,0.36301 -0.38809,0.36328 -0.20295,3.5e-4 -0.31333,-0.13602 -0.29663,-0.34675 -0.12873,-0.0687 -0.37906,0.16068 -0.38447,0.37156 -0.009,0.34812 0.40924,0.70838 0.76843,0.69763 0.46446,-0.0139 0.9443,-0.31558 0.93741,-0.95705 -0.006,-0.52611 -0.419,-0.99316 -1.15445,-1.01441 -0.61428,-0.0178 -1.25227,0.18648 -1.72444,0.57981 -0.33665,0.28044 -0.97032,1.30526 -2.15491,1.29812 -1.06044,-0.006 -0.94986,-0.19803 -1.94458,-1.11311 -0.62502,-0.57498 -2.18583,-0.93586 -2.78588,-0.93586 H 81.558045 c -0.3346,0.48171 -0.69682,0.88556 -1.11001,1.14721 -0.51999,-0.44945 -1.0239,-0.9865 -1.78387,-0.9865 -1.39755,0 -1.75584,1.66738 -2.92592,1.79369 0,0 -4.81632,-1.85167 -6.12159,-1.86759 -0.27797,-0.003 -0.59689,0.23134 -0.62425,0.50798 -0.0206,0.20825 0.26299,0.4575 0.3762,0.47232 -0.006,-0.18888 0.0277,-0.37426 0.29352,-0.38189 0.18653,-0.005 0.39528,0.0835 0.39636,0.34934 10e-4,0.3142 -0.21072,0.48621 -0.64285,0.49454 -0.68783,0.0132 -0.86994,-0.48022 -0.86351,-0.85163 0.008,-0.46032 0.13451,-1.03921 0.9343,-1.03921 h 47.626035 c 0.64494,0.99831 0.81045,1.51097 1.57458,1.63969 l 2.13785,-0.58497 -0.45527,-0.62167 -1.7079,-0.4346 z m -0.65371,0.29662 h -5.1325 c 0.25409,0.52772 0.64396,1.04093 1.24023,1.1281 z m -12.993,0.0119 -2.49804,0.0176 c 0,0 0.40285,0.41483 0.37207,0.66766 -0.0244,0.20048 -0.21166,0.43367 -0.41341,0.44286 -0.14764,0.007 -0.33657,-0.1479 -0.33073,-0.29558 0.005,-0.12354 0.29507,-0.22428 0.29507,-0.22428 0,0 0.0718,-0.38096 -0.44287,-0.36639 -0.42762,0.0121 -0.51357,0.41722 -0.51366,0.709 -1.9e-4,0.60469 0.37965,0.76287 0.75551,0.7736 1.13572,0.0324 1.84536,-1.5082 2.77606,-1.72444 z m -37.815265,0 h -6.23062 c 1.84516,0.3571 3.70457,1.26899 4.55889,1.2578 0.82869,-0.0109 1.52557,-0.97431 1.67173,-1.2578 z"
         style="opacity:1;vector-effect:none;fill:#ffffff;fill-opacity:1;stroke:none;stroke-width:2.1299;stroke-linecap:round;stroke-linejoin:miter;stroke-miterlimit:4;stroke-dasharray:none;stroke-dashoffset:0;stroke-opacity:1;paint-order:markers fill stroke" />
      <circle
         transform="scale(-1,1)"
         r="0.5433408"
         cy="165.6044"
         cx="-78.622894"
         id="path842-8"
         style="opacity:1;vector-effect:none;fill:#ffffff;fill-opacity:1;stroke:none;stroke-width:2.1299;stroke-linecap:round;stroke-linejoin:miter;stroke-miterlimit:4;stroke-dasharray:none;stroke-dashoffset:0;stroke-opacity:1;paint-order:markers fill stroke" />
    </g>
  </g>
</svg>
