<?xml version="1.0" encoding="UTF-8" standalone="no"?>
<!-- Created with Inkscape (http://www.inkscape.org/) -->

<svg
   width="320"
   height="512"
   viewBox="0 0 84.666663 135.46667"
   version="1.1"
   id="svg8"
   inkscape:version="1.2.1 (9c6d41e410, 2022-07-14)"
   sodipodi:docname="Master Border.svg"
   xml:space="preserve"
   xmlns:inkscape="http://www.inkscape.org/namespaces/inkscape"
   xmlns:sodipodi="http://sodipodi.sourceforge.net/DTD/sodipodi-0.dtd"
   xmlns="http://www.w3.org/2000/svg"
   xmlns:svg="http://www.w3.org/2000/svg"
   xmlns:rdf="http://www.w3.org/1999/02/22-rdf-syntax-ns#"
   xmlns:cc="http://creativecommons.org/ns#"
   xmlns:dc="http://purl.org/dc/elements/1.1/"><defs
     id="defs2" /><sodipodi:namedview
     id="base"
     pagecolor="#ffffff"
     bordercolor="#666666"
     borderopacity="1.0"
     inkscape:pageopacity="0.0"
     inkscape:pageshadow="2"
     inkscape:zoom="1.4"
     inkscape:cx="222.85714"
     inkscape:cy="293.92857"
     inkscape:document-units="px"
     inkscape:current-layer="layer1"
     showgrid="true"
     units="px"
     inkscape:window-width="2560"
     inkscape:window-height="1017"
     inkscape:window-x="-8"
     inkscape:window-y="-8"
     inkscape:window-maximized="1"
     inkscape:pagecheckerboard="true"
     inkscape:showpageshadow="0"
     inkscape:deskcolor="#d1d1d1"><inkscape:grid
       type="xygrid"
       id="grid815"
       spacingx="1.0583333"
       spacingy="1.0583333"
       empspacing="4"
       originx="0"
       originy="0" /></sodipodi:namedview><metadata
     id="metadata5"><rdf:RDF><cc:Work
         rdf:about=""><dc:format>image/svg+xml</dc:format><dc:type
           rdf:resource="http://purl.org/dc/dcmitype/StillImage" /></cc:Work></rdf:RDF></metadata><g
     inkscape:label="Layer 1"
     inkscape:groupmode="layer"
     id="layer1"
     transform="translate(0,-161.53332)"><path
       id="path2121-4"
       style="fill:#4c6673;fill-opacity:1;stroke-width:2.52455;stroke-linecap:round;stroke-linejoin:round;paint-order:markers fill stroke;stop-color:#000000"
       d="m 57.573329,161.53333 c 0,0 -3.613913,2.40943 -3.573526,9.59077 0.03482,6.1905 4.87441,8.41037 7.601811,8.38191 3.055606,-0.0328 5.273811,-1.55414 5.59759,-4.45479 0.27904,-2.49972 -0.639878,-4.35092 -2.83104,-4.41065 -1.01022,-0.0286 -1.938073,0.97994 -1.938073,1.97826 0,2.09383 1.78759,2.50592 1.78759,2.50592 0,0 -1.082637,0.44854 -2.377942,0.47701 -1.66752,0.0353 -3.06105,-0.90561 -3.01625,-3.52692 0.07894,-4.62034 2.997728,-6.76957 7.322343,-6.76957 4.521612,0 5.42135,3.52415 5.44215,6.37751 0.04003,5.51462 -4.610365,16.28681 -4.610365,16.28681 0,0 -4.771366,-4.26803 -9.713516,-4.33062 -2.15049,-0.0286 -3.441991,-0.0159 -5.934935,2.50106 -2.573638,2.60054 -3.331971,6.6884 -3.515651,10.4549 -0.56191,11.52263 -5.280886,16.22969 -9.789583,16.31789 -2.250413,0.0439 -4.200711,-1.45259 -4.383815,-3.84707 -0.07757,-1.01454 0.453098,-3.06136 0.453098,-3.06136 0,0 0.443741,1.14561 2.569766,1.10105 1.194093,-0.0254 2.968295,-0.70639 2.968295,-2.57618 0,-2.14857 -2.257194,-3.32267 -4.592173,-3.32267 -4.440397,0 -6.728688,3.83634 -6.728688,8.45703 0,5.21915 2.278156,7.39361 10.451043,7.39361 3.055661,0 6.552384,-0.74067 8.713059,-2.87512 4.092873,-4.0432 3.114211,-5.74234 3.393283,-8.82787 0.313856,-3.46983 0.841824,-6.99259 2.247302,-9.66593 0.856023,-1.62818 2.180317,-3.55081 4.034896,-3.64943 2.457133,-0.13072 6.047382,4.18197 6.047382,4.18197 0,0 -3.913916,6.2883 -3.945596,8.70701 -0.03408,2.60182 3.598953,5.38543 6.176364,7.42466 4.537821,3.59021 7.370301,4.03166 7.370301,4.03166 l 3.287446,9.47643 0.133952,-61.45869 h 5.194099 V 294.1314 h -5.194102 l -0.133952,-61.45873 -3.287446,9.47644 c 0,0 -2.832477,0.44148 -7.370298,4.03166 -2.577411,2.03922 -6.210447,4.82283 -6.176364,7.42465 0.03168,2.41875 3.945596,8.70702 3.945596,8.70702 0,0 -3.590252,4.31252 -6.047382,4.18197 -1.854582,-0.0986 -3.178873,-2.02122 -4.034899,-3.6494 -1.405478,-2.67335 -1.933446,-6.19613 -2.247302,-9.66596 -0.279072,-3.08554 0.69959,-4.78464 -3.393283,-8.82788 -2.160675,-2.13444 -5.657399,-2.87511 -8.713059,-2.87511 -8.172884,0 -10.45104,2.17445 -10.45104,7.39361 0,4.62071 2.288291,8.45706 6.728685,8.45706 2.334979,0 4.592176,-1.1741 4.592176,-3.3227 0,-1.8698 -1.774202,-2.5509 -2.968298,-2.57618 -2.126025,-0.0445 -2.569763,1.10104 -2.569763,1.10104 0,0 -0.530662,-2.04682 -0.453098,-3.06136 0.183104,-2.39448 2.133402,-3.89102 4.383815,-3.84706 4.508694,0.0881 9.227673,4.79529 9.789583,16.31788 0.18368,3.7665 0.94201,7.8544 3.515651,10.45491 2.492944,2.51753 3.784445,2.52949 5.934935,2.50106 4.94215,-0.0627 9.713516,-4.33063 9.713516,-4.33063 0,0 4.650397,10.77219 4.610365,16.28681 -0.0208,2.85339 -0.920538,6.37755 -5.44215,6.37755 -4.324615,0 -7.243399,-2.14927 -7.322343,-6.76957 -0.0448,-2.62131 1.34873,-3.56235 3.01625,-3.52695 1.295302,0.0286 2.377939,0.47704 2.377939,0.47704 0,0 -1.78759,0.41206 -1.78759,2.50589 0,0.99835 0.927856,2.00672 1.938073,1.97825 2.191162,-0.0598 3.110077,-1.91092 2.83104,-4.41064 -0.323779,-2.90066 -2.541984,-4.42194 -5.59759,-4.45479 -2.727402,-0.0286 -7.566995,2.1914 -7.601811,8.3819 -0.04038,7.18135 3.573529,9.59081 3.573529,9.59081 H 84.666663 V 161.53333 Z m 15.301184,16.5727 v 27.5112 c -3.37761,-0.90939 -5.282784,-3.04845 -7.578659,-4.88603 2.729264,-7.34069 5.141878,-14.99557 7.578659,-22.62517 z M 55.152392,215.78466 45.091611,226.31803 0,229.26667 l 45.091611,2.94862 10.060781,10.53334 12.58094,-13.48196 z m -0.01504,4.9269 8.739523,8.55511 -8.739523,8.55506 -8.605568,-8.55506 z m -0.0023,3.26392 -5.691219,5.29119 5.691219,5.29116 5.824771,-5.29116 z m 17.739286,28.94057 v 27.51121 c -2.436777,-7.62961 -4.849395,-15.28449 -7.578659,-22.62514 2.295872,-1.83759 4.20105,-3.97668 7.578659,-4.88607 z"
       sodipodi:nodetypes="cscscscccsccccsccccsssssccccsccccccccccsccccsssssccccsccccssccscscsccccccccccccccccccccccccccccc" /><ellipse
       style="fill:#4c6673;fill-opacity:1;stroke-width:2.53224;stroke-linecap:round;stroke-linejoin:round;paint-order:markers fill stroke;stop-color:#000000"
       id="path2328-7"
       cx="39.502434"
       cy="-191.67114"
       transform="scale(1,-1)"
       rx="3.2072341"
       ry="3.1876612" /><ellipse
       style="fill:#4c6673;fill-opacity:1;stroke-width:2.53224;stroke-linecap:round;stroke-linejoin:round;paint-order:markers fill stroke;stop-color:#000000"
       id="path2328"
       cx="39.502434"
       cy="266.03546"
       rx="3.2072341"
       ry="3.1876612" /></g></svg>
